<svg width="840" height="889" viewBox="0 0 840 889" fill="none" xmlns="http://www.w3.org/2000/svg">
<path d="M565.181 418.657C596.152 418.959 627.124 419.253 658.095 419.565C685.192 419.838 697.565 432.07 697.654 459.034C697.772 494.775 697.795 530.518 697.655 566.259C697.551 592.817 685.655 604.62 659.054 604.708C626.62 604.816 594.185 604.733 558.97 604.733C558.97 631.368 558.971 656.444 558.97 681.521C558.969 740.915 558.855 800.31 559.052 859.703C559.095 872.589 558.011 884.592 542.981 888.282C528.892 891.741 522.135 882.128 515.867 871.739C450.179 762.856 387.627 652.385 342.836 532.824C322.362 478.172 309.909 422.319 312.865 363.34C314.521 330.309 313.363 297.126 313.123 264.014C312.658 200.014 273.624 165.859 210.093 174.372C158.126 181.337 109.752 200.35 61.6663 220.174C38.4474 229.746 17.7997 224.035 6.66943 205.226C-2.18023 190.271 -2.56978 174.77 7.5918 160.65C61.3179 85.9979 128.073 28.9578 220.169 8.00198C239.973 3.49573 260.627 0.864887 280.919 0.688531C370.239 -0.0877703 459.572 0.72488 548.893 0.00205936C564.8 -0.12667 572.017 5.7695 574.569 20.5553C576.44 31.398 578.72 42.255 581.932 52.7649C590.172 79.7305 605.922 88.8461 633.471 83.2561C660.824 77.706 677.355 60.1777 686.741 34.7957C695.782 10.3476 702.607 5.60177 728.509 5.59476C753.731 5.58792 778.953 5.49797 804.174 5.61918C827.492 5.73124 839.893 18.1747 839.929 41.8014C840.033 110.131 840.014 178.461 839.928 246.791C839.898 270.513 830.639 281.122 804.616 285.072C780.978 285.58 759.91 285.993 738.841 286.406C715.082 288.795 697.986 281.091 686.207 258.447C676.823 240.407 657.393 234.502 637.901 233.218C621.165 232.115 604.286 232.661 587.491 233.15C573.284 233.563 563.258 239.674 561.832 258.026C561.426 310.445 561.139 360.229 561.173 410.012C561.175 412.895 563.785 415.776 565.181 418.657Z" fill="#2C3196"/>
</svg>
